<svg id="Layer_1" data-name="Layer 1" xmlns="http://www.w3.org/2000/svg" viewBox="0 0 432.13 357.25"><defs><style>.cls-1{fill:#2c0055;opacity:0.37;}.cls-1,.cls-20,.cls-22,.cls-27,.cls-9{isolation:isolate;}.cls-2,.cls-27{opacity:0.59;}.cls-3{fill:#2e094d;}.cls-4,.cls-9{fill:#3d003d;}.cls-5{fill:#6e2974;}.cls-6{fill:#925a91;}.cls-7{fill:#eae3e7;}.cls-8{fill:#b876aa;}.cls-9{opacity:0.32;}.cls-10{fill:#330c4b;}.cls-11{fill:#c4773a;}.cls-12{fill:#e5b868;}.cls-13{fill:#eccfa9;}.cls-14{fill:#faf1e5;}.cls-15{fill:#31272e;}.cls-16{fill:#f39960;}.cls-17{fill:#f9ad81;}.cls-18{fill:#fff;}.cls-19{fill:#f68501;}.cls-20,.cls-25{fill:#353352;}.cls-20{opacity:0.55;}.cls-21,.cls-24{fill:#ff9d12;}.cls-22{fill:#c59f09;opacity:0.5;}.cls-23{fill:#fdd3aa;}.cls-23,.cls-24,.cls-25,.cls-26,.cls-27,.cls-28{fill-rule:evenodd;}.cls-26{fill:#666;}.cls-27{fill:#232323;}.cls-28{fill:#fff4e9;}</style></defs><title>Untitled-2</title><path class="cls-1" d="M333.28,52.16V58h-28.5V24H250.9V39.31h-62V59.09h-4.39V23.92H130.65V39.31H106.87V23.11H43V58H5.65V52.2H0V301.53H5.65V290.45H73.88v11.08h5.65V253.87H259.4v47.66h5.66V290.45h68.22v11.08h5.65V52.16Zm0,189.81H319.57V220.5H293.33V191.34H265.06V180.63h68.22Zm-155.79-44.2v8.61H133V186.6H79.53v-6H259.4v10.71H216.67v6.43H177.49Zm81.91-91.18v18.85H218.12v7.7H181V113.36H101.82v-3.21H79.53v-3.56Zm10.06,18.85h-4.4V106.59h68.22v62.14H283.67V125.44ZM73.88,106.59v3.56H36.27v58.58H5.65V106.59Zm0,74v6H49.14V242H5.65V180.63Zm244.59-85.9v-30h14.81v30Zm-295.56-30v30H5.65v-30Zm51,219H5.65V253.87H73.88Zm191.18,0V253.87h68.22v29.81Z"/><g class="cls-2"><rect class="cls-3" x="259.4" y="52.16" width="5.65" height="249.38"/><rect class="cls-3" x="333.28" y="52.16" width="5.65" height="249.38"/><rect class="cls-3" x="262.23" y="57.96" width="73.88" height="6.77"/><rect class="cls-3" x="262.23" y="170.82" width="73.88" height="6.77"/><rect class="cls-3" x="262.23" y="283.68" width="73.88" height="6.77"/><rect class="cls-4" x="216.67" y="191.34" width="60.04" height="50.63"/><rect class="cls-5" x="233.82" y="191.34" width="59.51" height="50.63"/><rect class="cls-6" x="258.84" y="191.34" width="9.48" height="13.03"/><rect class="cls-6" x="258.84" y="228.94" width="9.48" height="13.03"/><rect class="cls-7" x="273.68" y="231.59" width="15.44" height="8.05"/><rect class="cls-8" x="274.39" y="232.72" width="1.64" height="5.79"/><rect class="cls-8" x="277.02" y="232.72" width="0.57" height="5.79"/><rect class="cls-8" x="279.95" y="232.72" width="1.34" height="5.79"/><rect class="cls-8" x="278.26" y="232.72" width="0.82" height="5.79"/><rect class="cls-8" x="282.3" y="232.72" width="0.56" height="5.79"/><rect class="cls-8" x="284.92" y="232.72" width="1.11" height="5.79"/><rect class="cls-8" x="286.41" y="232.72" width="0.55" height="5.79"/><rect class="cls-8" x="283.66" y="232.72" width="0.76" height="5.79"/><rect class="cls-8" x="287.55" y="232.72" width="0.82" height="5.79"/><rect class="cls-9" x="216.67" y="215.07" width="76.66" height="26.9"/><rect class="cls-4" x="250.9" y="23.92" width="42.2" height="35.59"/><rect class="cls-5" x="262.95" y="23.92" width="41.83" height="35.59"/><rect class="cls-6" x="280.54" y="23.92" width="6.66" height="9.16"/><rect class="cls-6" x="280.54" y="50.36" width="6.66" height="9.16"/><rect class="cls-7" x="290.97" y="52.22" width="10.85" height="5.66"/><rect class="cls-8" x="291.47" y="53.01" width="1.15" height="4.07"/><rect class="cls-8" x="293.32" y="53.01" width="0.4" height="4.07"/><rect class="cls-8" x="295.38" y="53.01" width="0.94" height="4.07"/><rect class="cls-8" x="294.19" y="53.01" width="0.58" height="4.07"/><rect class="cls-8" x="297.03" y="53.01" width="0.39" height="4.07"/><rect class="cls-8" x="298.87" y="53.01" width="0.78" height="4.07"/><rect class="cls-8" x="299.92" y="53.01" width="0.39" height="4.07"/><rect class="cls-8" x="297.99" y="53.01" width="0.54" height="4.07"/><rect class="cls-8" x="300.72" y="53.01" width="0.58" height="4.07"/><rect class="cls-4" x="265.68" y="220.5" width="42.2" height="21.47"/><rect class="cls-5" x="277.74" y="220.5" width="41.83" height="21.47"/><rect class="cls-6" x="293.04" y="220.5" width="11.22" height="6.36"/><rect class="cls-7" x="279.74" y="234.67" width="10.85" height="5.66"/><rect class="cls-8" x="280.24" y="235.46" width="1.15" height="4.07"/><rect class="cls-8" x="282.09" y="235.46" width="0.4" height="4.07"/><rect class="cls-8" x="284.15" y="235.46" width="0.94" height="4.07"/><rect class="cls-8" x="282.96" y="235.46" width="0.58" height="4.07"/><rect class="cls-8" x="285.8" y="235.46" width="0.39" height="4.07"/><rect class="cls-8" x="287.64" y="235.46" width="0.78" height="4.07"/><rect class="cls-8" x="288.69" y="235.46" width="0.39" height="4.07"/><rect class="cls-8" x="286.76" y="235.46" width="0.53" height="4.07"/><rect class="cls-8" x="289.49" y="235.46" width="0.58" height="4.07"/><rect class="cls-4" x="264.58" y="59.09" width="42.2" height="35.59"/><rect class="cls-5" x="276.64" y="59.09" width="41.83" height="35.59"/><rect class="cls-6" x="291.94" y="59.09" width="11.22" height="9.16"/><rect class="cls-6" x="291.94" y="85.53" width="11.22" height="9.16"/><rect class="cls-7" x="278.64" y="87.39" width="10.85" height="5.66"/><rect class="cls-8" x="279.14" y="88.18" width="1.15" height="4.07"/><rect class="cls-8" x="280.99" y="88.18" width="0.4" height="4.07"/><rect class="cls-8" x="283.05" y="88.18" width="0.94" height="4.07"/><rect class="cls-8" x="281.86" y="88.18" width="0.58" height="4.07"/><rect class="cls-8" x="284.7" y="88.18" width="0.39" height="4.07"/><rect class="cls-8" x="286.54" y="88.18" width="0.78" height="4.07"/><rect class="cls-8" x="287.59" y="88.18" width="0.39" height="4.07"/><rect class="cls-8" x="285.66" y="88.18" width="0.54" height="4.07"/><rect class="cls-8" x="288.39" y="88.18" width="0.58" height="4.07"/><rect class="cls-4" x="188.93" y="39.31" width="65.66" height="55.37"/><rect class="cls-5" x="207.69" y="39.31" width="65.08" height="55.37"/><rect class="cls-6" x="231.49" y="39.31" width="17.46" height="14.25"/><rect class="cls-6" x="231.49" y="80.44" width="17.46" height="14.25"/><rect class="cls-7" x="210.8" y="83.33" width="16.88" height="8.8"/><rect class="cls-8" x="211.58" y="84.57" width="1.79" height="6.33"/><rect class="cls-8" x="214.46" y="84.57" width="0.63" height="6.33"/><rect class="cls-8" x="217.66" y="84.57" width="1.47" height="6.33"/><rect class="cls-8" x="215.81" y="84.57" width="0.9" height="6.33"/><rect class="cls-8" x="220.23" y="84.57" width="0.61" height="6.33"/><rect class="cls-8" x="223.09" y="84.57" width="1.21" height="6.33"/><rect class="cls-8" x="224.73" y="84.57" width="0.6" height="6.33"/><rect class="cls-8" x="221.72" y="84.57" width="0.83" height="6.33"/><rect class="cls-8" x="225.97" y="84.57" width="0.9" height="6.33"/><rect class="cls-4" x="177.49" y="197.77" width="52.41" height="44.2"/><rect class="cls-5" x="192.46" y="197.77" width="51.95" height="44.2"/><rect class="cls-6" x="214.3" y="197.77" width="8.27" height="11.37"/><rect class="cls-6" x="214.3" y="230.6" width="8.27" height="11.37"/><rect class="cls-7" x="227.26" y="232.91" width="13.48" height="7.03"/><rect class="cls-8" x="227.88" y="233.89" width="1.43" height="5.06"/><rect class="cls-8" x="230.18" y="233.89" width="0.5" height="5.06"/><rect class="cls-8" x="232.73" y="233.89" width="1.17" height="5.06"/><rect class="cls-8" x="231.25" y="233.89" width="0.71" height="5.06"/><rect class="cls-8" x="234.78" y="233.89" width="0.48" height="5.06"/><rect class="cls-8" x="237.07" y="233.89" width="0.97" height="5.06"/><rect class="cls-8" x="238.37" y="233.89" width="0.48" height="5.06"/><rect class="cls-8" x="235.97" y="233.89" width="0.66" height="5.06"/><rect class="cls-8" x="239.37" y="233.89" width="0.72" height="5.06"/><rect class="cls-4" x="124.8" y="206.38" width="42.2" height="35.59"/><rect class="cls-5" x="136.86" y="206.38" width="41.83" height="35.59"/><rect class="cls-6" x="152.16" y="206.38" width="11.22" height="9.16"/><rect class="cls-6" x="152.16" y="232.81" width="11.22" height="9.16"/><rect class="cls-7" x="138.86" y="234.67" width="10.85" height="5.66"/><rect class="cls-8" x="139.36" y="235.46" width="1.15" height="4.07"/><rect class="cls-8" x="141.21" y="235.46" width="0.4" height="4.07"/><rect class="cls-8" x="143.27" y="235.46" width="0.94" height="4.07"/><rect class="cls-8" x="142.08" y="235.46" width="0.58" height="4.07"/><rect class="cls-8" x="144.92" y="235.46" width="0.39" height="4.07"/><rect class="cls-8" x="146.76" y="235.46" width="0.78" height="4.07"/><rect class="cls-8" x="147.81" y="235.46" width="0.39" height="4.07"/><rect class="cls-8" x="145.88" y="235.46" width="0.53" height="4.07"/><rect class="cls-8" x="148.61" y="235.46" width="0.58" height="4.07"/><rect class="cls-4" x="49.14" y="186.6" width="65.66" height="55.37"/><rect class="cls-5" x="67.9" y="186.6" width="65.08" height="55.37"/><rect class="cls-6" x="91.71" y="186.6" width="17.46" height="14.25"/><rect class="cls-6" x="91.71" y="227.72" width="17.46" height="14.25"/><rect class="cls-7" x="71.02" y="230.61" width="16.88" height="8.8"/><rect class="cls-8" x="71.79" y="231.85" width="1.79" height="6.34"/><rect class="cls-8" x="74.67" y="231.85" width="0.63" height="6.34"/><rect class="cls-8" x="77.88" y="231.85" width="1.47" height="6.34"/><rect class="cls-8" x="76.02" y="231.85" width="0.9" height="6.34"/><rect class="cls-8" x="80.44" y="231.85" width="0.61" height="6.34"/><rect class="cls-8" x="83.31" y="231.85" width="1.21" height="6.34"/><rect class="cls-8" x="84.94" y="231.85" width="0.6" height="6.34"/><rect class="cls-8" x="81.94" y="231.85" width="0.83" height="6.34"/><rect class="cls-8" x="86.19" y="231.85" width="0.9" height="6.34"/><rect class="cls-4" x="43.03" y="23.11" width="49.99" height="42.16"/><rect class="cls-5" x="57.31" y="23.11" width="49.55" height="42.16"/><rect class="cls-6" x="75.44" y="23.11" width="13.3" height="10.85"/><rect class="cls-6" x="75.44" y="54.43" width="13.3" height="10.85"/><rect class="cls-7" x="59.69" y="56.63" width="12.86" height="6.7"/><rect class="cls-8" x="60.27" y="57.57" width="1.36" height="4.82"/><rect class="cls-8" x="62.47" y="57.57" width="0.48" height="4.82"/><rect class="cls-8" x="64.91" y="57.57" width="1.12" height="4.82"/><rect class="cls-8" x="63.5" y="57.57" width="0.68" height="4.82"/><rect class="cls-8" x="66.86" y="57.57" width="0.46" height="4.82"/><rect class="cls-8" x="69.05" y="57.57" width="0.92" height="4.82"/><rect class="cls-8" x="70.29" y="57.57" width="0.46" height="4.82"/><rect class="cls-8" x="68" y="57.57" width="0.63" height="4.82"/><rect class="cls-8" x="71.24" y="57.57" width="0.68" height="4.82"/><rect class="cls-9" x="60.75" y="33.45" width="46.12" height="31.82"/><rect class="cls-4" x="130.65" y="23.92" width="42.2" height="35.59"/><rect class="cls-5" x="142.71" y="23.92" width="41.83" height="35.59"/><rect class="cls-6" x="160.29" y="23.92" width="6.66" height="9.16"/><rect class="cls-6" x="160.29" y="50.36" width="6.66" height="9.16"/><rect class="cls-7" x="170.73" y="52.22" width="10.85" height="5.66"/><rect class="cls-8" x="171.23" y="53.01" width="1.15" height="4.07"/><rect class="cls-8" x="173.08" y="53.01" width="0.4" height="4.07"/><rect class="cls-8" x="175.13" y="53.01" width="0.94" height="4.07"/><rect class="cls-8" x="173.94" y="53.01" width="0.58" height="4.07"/><rect class="cls-8" x="176.79" y="53.01" width="0.39" height="4.07"/><rect class="cls-8" x="178.63" y="53.01" width="0.78" height="4.07"/><rect class="cls-8" x="179.68" y="53.01" width="0.39" height="4.07"/><rect class="cls-8" x="177.75" y="53.01" width="0.53" height="4.07"/><rect class="cls-8" x="180.48" y="53.01" width="0.58" height="4.07"/><rect class="cls-4" x="144.34" y="59.09" width="42.2" height="35.59"/><rect class="cls-5" x="156.39" y="59.09" width="41.83" height="35.59"/><rect class="cls-6" x="171.7" y="59.09" width="11.22" height="9.16"/><rect class="cls-6" x="171.7" y="85.53" width="11.22" height="9.16"/><rect class="cls-7" x="158.4" y="87.39" width="10.85" height="5.66"/><rect class="cls-8" x="158.89" y="88.18" width="1.15" height="4.07"/><rect class="cls-8" x="160.75" y="88.18" width="0.4" height="4.07"/><rect class="cls-8" x="162.8" y="88.18" width="0.94" height="4.07"/><rect class="cls-8" x="161.61" y="88.18" width="0.58" height="4.07"/><rect class="cls-8" x="164.45" y="88.18" width="0.39" height="4.07"/><rect class="cls-8" x="166.3" y="88.18" width="0.78" height="4.07"/><rect class="cls-8" x="167.35" y="88.18" width="0.39" height="4.07"/><rect class="cls-8" x="165.41" y="88.18" width="0.54" height="4.07"/><rect class="cls-8" x="168.15" y="88.18" width="0.58" height="4.07"/><rect class="cls-4" x="68.68" y="39.31" width="65.66" height="55.37"/><rect class="cls-5" x="87.44" y="39.31" width="65.08" height="55.37"/><rect class="cls-6" x="111.25" y="39.31" width="17.46" height="14.25"/><rect class="cls-6" x="111.25" y="80.44" width="17.46" height="14.25"/><rect class="cls-7" x="90.56" y="83.33" width="16.88" height="8.8"/><rect class="cls-8" x="91.33" y="84.57" width="1.79" height="6.33"/><rect class="cls-8" x="94.21" y="84.57" width="0.63" height="6.33"/><rect class="cls-8" x="97.41" y="84.57" width="1.47" height="6.33"/><rect class="cls-8" x="95.56" y="84.57" width="0.9" height="6.33"/><rect class="cls-8" x="99.98" y="84.57" width="0.61" height="6.33"/><rect class="cls-8" x="102.85" y="84.57" width="1.21" height="6.33"/><rect class="cls-8" x="104.48" y="84.57" width="0.6" height="6.33"/><rect class="cls-8" x="101.47" y="84.57" width="0.83" height="6.33"/><rect class="cls-8" x="105.73" y="84.57" width="0.9" height="6.33"/><rect class="cls-4" x="218.12" y="125.44" width="51.33" height="43.29"/><rect class="cls-5" x="232.79" y="125.44" width="50.88" height="43.29"/><rect class="cls-6" x="251.4" y="125.44" width="13.65" height="11.14"/><rect class="cls-6" x="251.4" y="157.59" width="13.65" height="11.14"/><rect class="cls-7" x="235.23" y="159.85" width="13.2" height="6.88"/><rect class="cls-8" x="235.83" y="160.82" width="1.4" height="4.95"/><rect class="cls-8" x="238.08" y="160.82" width="0.49" height="4.95"/><rect class="cls-8" x="240.59" y="160.82" width="1.15" height="4.95"/><rect class="cls-8" x="239.14" y="160.82" width="0.7" height="4.95"/><rect class="cls-8" x="242.59" y="160.82" width="0.47" height="4.95"/><rect class="cls-8" x="244.84" y="160.82" width="0.95" height="4.95"/><rect class="cls-8" x="246.11" y="160.82" width="0.47" height="4.95"/><rect class="cls-8" x="243.76" y="160.82" width="0.65" height="4.95"/><rect class="cls-8" x="247.09" y="160.82" width="0.7" height="4.95"/><rect class="cls-4" x="36.27" y="110.15" width="51.33" height="58.58"/><rect class="cls-5" x="50.94" y="110.15" width="50.88" height="58.58"/><rect class="cls-6" x="69.55" y="110.15" width="13.65" height="11.14"/><rect class="cls-6" x="69.55" y="157.59" width="13.65" height="11.14"/><rect class="cls-7" x="53.38" y="159.85" width="13.2" height="6.88"/><rect class="cls-8" x="53.98" y="160.82" width="1.4" height="4.95"/><rect class="cls-8" x="56.23" y="160.82" width="0.49" height="4.95"/><rect class="cls-8" x="58.74" y="160.82" width="1.15" height="4.95"/><rect class="cls-8" x="57.29" y="160.82" width="0.7" height="4.95"/><rect class="cls-8" x="60.74" y="160.82" width="0.47" height="4.95"/><rect class="cls-8" x="62.99" y="160.82" width="0.95" height="4.95"/><rect class="cls-8" x="64.26" y="160.82" width="0.47" height="4.95"/><rect class="cls-8" x="61.91" y="160.82" width="0.65" height="4.95"/><rect class="cls-8" x="65.24" y="160.82" width="0.7" height="4.95"/><rect class="cls-9" x="83.61" y="110.15" width="18.21" height="58.58"/><rect class="cls-4" x="172.79" y="133.14" width="42.2" height="35.59"/><rect class="cls-5" x="184.84" y="133.14" width="41.83" height="35.59"/><rect class="cls-6" x="200.15" y="133.14" width="11.22" height="9.16"/><rect class="cls-6" x="200.15" y="159.57" width="11.22" height="9.16"/><rect class="cls-7" x="186.85" y="161.43" width="10.85" height="5.66"/><rect class="cls-8" x="187.34" y="162.23" width="1.15" height="4.07"/><rect class="cls-8" x="189.19" y="162.23" width="0.4" height="4.07"/><rect class="cls-8" x="191.25" y="162.23" width="0.94" height="4.07"/><rect class="cls-8" x="190.06" y="162.23" width="0.58" height="4.07"/><rect class="cls-8" x="192.9" y="162.23" width="0.39" height="4.07"/><rect class="cls-8" x="194.75" y="162.23" width="0.78" height="4.07"/><rect class="cls-8" x="195.8" y="162.23" width="0.39" height="4.07"/><rect class="cls-8" x="193.86" y="162.23" width="0.54" height="4.07"/><rect class="cls-8" x="196.6" y="162.23" width="0.58" height="4.07"/><rect class="cls-4" x="97.13" y="113.36" width="65.66" height="55.37"/><rect class="cls-5" x="115.89" y="113.36" width="65.08" height="55.37"/><rect class="cls-6" x="139.7" y="113.36" width="17.46" height="14.25"/><rect class="cls-6" x="139.7" y="154.48" width="17.46" height="14.25"/><rect class="cls-7" x="119.01" y="157.38" width="16.88" height="8.8"/><rect class="cls-8" x="119.78" y="158.61" width="1.79" height="6.33"/><rect class="cls-8" x="122.66" y="158.61" width="0.63" height="6.33"/><rect class="cls-8" x="125.86" y="158.61" width="1.47" height="6.33"/><rect class="cls-8" x="124.01" y="158.61" width="0.9" height="6.33"/><rect class="cls-8" x="128.43" y="158.61" width="0.61" height="6.33"/><rect class="cls-8" x="131.3" y="158.61" width="1.21" height="6.33"/><rect class="cls-8" x="132.93" y="158.61" width="0.6" height="6.33"/><rect class="cls-8" x="129.92" y="158.61" width="0.83" height="6.33"/><rect class="cls-8" x="134.18" y="158.61" width="0.9" height="6.33"/><rect class="cls-4" x="22.91" y="59.09" width="42.2" height="35.59"/><rect class="cls-5" x="34.97" y="59.09" width="41.83" height="35.59"/><rect class="cls-6" x="50.27" y="59.09" width="11.22" height="9.16"/><rect class="cls-6" x="50.27" y="85.53" width="11.22" height="9.16"/><rect class="cls-7" x="36.97" y="87.39" width="10.85" height="5.66"/><rect class="cls-8" x="37.47" y="88.18" width="1.15" height="4.07"/><rect class="cls-8" x="39.32" y="88.18" width="0.4" height="4.07"/><rect class="cls-8" x="41.38" y="88.18" width="0.94" height="4.07"/><rect class="cls-8" x="40.19" y="88.18" width="0.58" height="4.07"/><rect class="cls-8" x="43.03" y="88.18" width="0.39" height="4.07"/><rect class="cls-8" x="44.87" y="88.18" width="0.78" height="4.07"/><rect class="cls-8" x="45.92" y="88.18" width="0.39" height="4.07"/><rect class="cls-8" x="43.99" y="88.18" width="0.53" height="4.07"/><rect class="cls-8" x="46.72" y="88.18" width="0.58" height="4.07"/><rect class="cls-9" x="65.31" y="59.09" width="11.49" height="35.59"/><rect class="cls-10" x="2.83" y="94.69" width="330.45" height="11.9"/><rect class="cls-10" x="2.83" y="168.73" width="330.45" height="11.9"/><rect class="cls-10" x="2.83" y="241.97" width="330.45" height="11.9"/><rect class="cls-3" y="52.16" width="5.65" height="249.38"/><rect class="cls-3" x="73.88" y="52.16" width="5.65" height="249.38"/><rect class="cls-3" x="2.83" y="57.96" width="73.88" height="6.77"/><rect class="cls-3" x="2.83" y="283.68" width="73.88" height="6.77"/></g><rect class="cls-11" x="219.28" y="126.39" width="81.08" height="141.79"/><rect class="cls-12" x="246.88" y="126.39" width="80.23" height="141.79"/><rect class="cls-13" x="281.91" y="126.39" width="18.82" height="29.23"/><rect class="cls-13" x="281.91" y="238.95" width="18.82" height="29.23"/><rect class="cls-14" x="251.47" y="244.88" width="24.84" height="18.06"/><rect class="cls-15" x="252.6" y="247.42" width="2.64" height="13"/><rect class="cls-15" x="256.84" y="247.42" width="0.92" height="13"/><rect class="cls-15" x="261.55" y="247.42" width="2.16" height="13"/><rect class="cls-15" x="258.83" y="247.42" width="1.32" height="13"/><rect class="cls-15" x="265.33" y="247.42" width="0.89" height="13"/><rect class="cls-15" x="269.55" y="247.42" width="1.79" height="13"/><rect class="cls-15" x="271.95" y="247.42" width="0.89" height="13"/><rect class="cls-15" x="267.53" y="247.42" width="1.22" height="13"/><rect class="cls-15" x="273.79" y="247.42" width="1.32" height="13"/><rect class="cls-11" x="275.75" y="184.04" width="65.49" height="77.02"/><rect class="cls-12" x="294.46" y="184.04" width="64.91" height="77.02"/><rect class="cls-13" x="321.75" y="184.04" width="10.34" height="19.82"/><rect class="cls-13" x="321.75" y="241.25" width="10.34" height="19.82"/><rect class="cls-14" x="337.94" y="245.27" width="16.84" height="12.25"/><rect class="cls-11" x="296.99" y="260.16" width="65.49" height="77.02"/><rect class="cls-12" x="315.7" y="260.16" width="64.91" height="77.02"/><rect class="cls-13" x="339.44" y="260.16" width="17.42" height="19.82"/><rect class="cls-13" x="339.44" y="317.37" width="17.42" height="19.82"/><rect class="cls-14" x="318.81" y="321.39" width="16.84" height="12.25"/><rect class="cls-11" x="230.18" y="49.36" width="65.49" height="77.02"/><rect class="cls-12" x="248.89" y="49.36" width="64.91" height="77.02"/><rect class="cls-13" x="272.64" y="49.36" width="17.42" height="19.82"/><rect class="cls-14" x="252" y="110.59" width="16.84" height="12.25"/><rect class="cls-11" x="179.58" y="217.35" width="101.89" height="119.84"/><rect class="cls-12" x="208.69" y="217.35" width="100.99" height="119.84"/><rect class="cls-13" x="245.64" y="217.35" width="27.1" height="30.83"/><rect class="cls-13" x="245.64" y="306.35" width="27.1" height="30.83"/><rect class="cls-14" x="213.53" y="312.61" width="26.2" height="19.05"/><polygon class="cls-16" points="100.22 127.45 99.61 149.18 110.96 149.4 111.89 127.63 100.22 127.45"/><path class="cls-17" d="M93.1,89v11.2a5.51,5.51,0,0,0-.57-.06,7.5,7.5,0,0,0,0,15,5.51,5.51,0,0,0,.57-.06v2.59a17.55,17.55,0,0,0,17.55,17.55H111a17.55,17.55,0,0,0,17.55-17.55h0V89Z"/><path class="cls-15" d="M110.53,106.77a2.43,2.43,0,1,1-2.43-2.43h0a2.42,2.42,0,0,1,2.42,2.42Z"/><path class="cls-15" d="M123.91,106.77a2.43,2.43,0,1,1-2.43-2.43,2.43,2.43,0,0,1,2.43,2.43Z"/><path class="cls-18" d="M107.09,118.89h14s-.46,6.82-6.82,6.82S107.09,118.89,107.09,118.89Z"/><path class="cls-15" d="M118.74,99.87h4.88a.87.87,0,0,1,.87.87h0v.14a.87.87,0,0,1-.88.88h-4.88a.87.87,0,0,1-.88-.88v-.14a.87.87,0,0,1,.87-.87Z"/><path class="cls-15" d="M105.67,99.87h4.88a.87.87,0,0,1,.88.88v.14a.87.87,0,0,1-.88.88h-4.88a.87.87,0,0,1-.87-.87h0v-.14a.87.87,0,0,1,.85-.89Z"/><path class="cls-15" d="M86.13,89S88,73.25,105.79,76.58s26.71,3.79,29.13.76c0,0,5.12,16.67-14.87,16.67s-19-2.42-20.89,1.52S98.4,106,98.4,106H93.85s0-7-6.65-3.52C87.2,102.46,85.52,97.8,86.13,89Z"/><path class="cls-19" d="M137.33,191.53c.29-.47.59-.9.9-1.33-2.13-2.21-4.45-4.64-6-6.37a12,12,0,0,1-2.59-4.49l-5-25.46a15.43,15.43,0,0,0-6.93-10.21,4,4,0,0,0-.57-.32c-8.32-4.08-11,6.55-11.2,10.29a6.68,6.68,0,0,0,.66,3.23l14.24,31.7a4.49,4.49,0,0,0,4.07,2.53l9.44,7A26.33,26.33,0,0,1,137.33,191.53Z"/><path class="cls-15" d="M116.1,292.9v18.61h33.63v-.09a10.12,10.12,0,0,0-6.7-9.73c-4.78-1.66-11-4.85-15.26-10.87Z"/><path class="cls-20" d="M127.77,290.82,116.1,292.9l.08,6.48,19.34-1.29A27.13,27.13,0,0,1,127.77,290.82Z"/><path class="cls-15" d="M87.61,292.9v18.61h33.63v-.09a10.12,10.12,0,0,0-6.7-9.73c-4.78-1.66-11-4.85-15.26-10.87Z"/><path class="cls-20" d="M99.28,290.82,87.61,292.9l.09,6.48,19.3-1.29A27,27,0,0,1,99.28,290.82Z"/><path class="cls-21" d="M121.83,204.74l2.48-.09a181.46,181.46,0,0,0-2.16-52.17,18.59,18.59,0,0,0-10.78-13.41c-3.38,1.31-7.3,1.68-10.45-.34a8.61,8.61,0,0,1-.77-.58c-7,1.69-15.81,5.89-17.08,13.15-4,22.87,1.55,56.89,1.34,58-.66,3.27.53,85.84.53,85.84h20.74l.25-71.32c3.45,6.11,7.4,22.71,7.07,24.17l.55,45.24,19.23,2.26,2-50.47C135.78,241.19,126.7,217.52,121.83,204.74Z"/><path class="cls-22" d="M94.25,198.54c6.48.79,12.91,2.05,19.46,2h4c3.07-2.74,1.53-6.31.43-8-2.89-4.51-17.47-4.86-19.3-9.94-2-5.58-1.39-11.55-1.21-17.35.26-8-.85-13.9-8.48-17.57-1.19-.58-2.4-1.09-3.63-1.58A11.12,11.12,0,0,0,83,151.29c-2.47,14.23-1.27,32.74-.06,45A61.91,61.91,0,0,0,94.25,198.54Z"/><path class="cls-21" d="M69.58,184.88l15-37.65a6.81,6.81,0,0,1,1.94-2.68c2.86-2.4,11.1-4.58,13.72,4.31a10.46,10.46,0,0,1-.22,5.41L86.86,179.62c-.49,1.4,25-1.19,25-1.19l.72,14s-15.78.72-24.51.87C70,193.64,68.93,186.49,69.58,184.88Z"/><path class="cls-17" d="M113.41,178.21a9.5,9.5,0,0,0-1.59.22l.72,14a10.7,10.7,0,0,0,1.6.06c4.74-.25,8.42-3.65,8.21-7.61S118.14,178,113.41,178.21Z"/><polygon class="cls-18" points="127.72 167.89 109.27 201.25 132.77 206.69 154.47 172.31 127.72 167.89"/><path class="cls-16" d="M148.11,183.23c.86.66.38,3.85-1,6.73s-3.49,5.46-4.33,5.13c-2.92-1.16-4.05-4.88-2.6-8.16S145.61,181.26,148.11,183.23Z"/><path class="cls-23" d="M329.47,234.68c12.25,0,22.26-10.69,22.26-23.78V145.67l8.62-2.85,35.21,121.35-60,19.82-9.69-33.54-18.14-15.77Z"/><path class="cls-23" d="M226.69,78.39a10.88,10.88,0,0,1,15.16-2.58,9.89,9.89,0,0,1,.81.64l1.23,1.08v31.29L228.51,95.46A12.78,12.78,0,0,1,226.69,78.39Z"/><polygon class="cls-24" points="399.23 243.86 322.13 269.35 347.63 357.25 432.13 357.25 399.23 243.86"/><path class="cls-25" d="M244.27,31.56V210.89c0,13.09,10,23.79,22.26,23.79h63.28c12.26,0,22.26-10.69,22.26-23.79V31.56c0-13.08-10-23.78-22.26-23.78H266.55C254.29,7.78,244.27,18.48,244.27,31.56Zm9.48-6.3a.34.34,0,0,1,.31-.33h88.27a.34.34,0,0,1,.31.33V211.54a.34.34,0,0,1-.31.34H254.06a.33.33,0,0,1-.31-.34Z"/><path class="cls-26" d="M314.55,13.39h-32.7a1.67,1.67,0,0,0-1.61,1.72h0a1.66,1.66,0,0,0,1.61,1.71h32.7a1.67,1.67,0,0,0,1.61-1.71h0A1.67,1.67,0,0,0,314.55,13.39Z"/><path class="cls-26" d="M298.19,218.07a5.82,5.82,0,1,0,5.44,6.19c0-.13,0-.25,0-.37A5.65,5.65,0,0,0,298.19,218.07Z"/><path class="cls-27" d="M342.25,24.6H254a.33.33,0,0,0-.31.33V211.55a.33.33,0,0,0,.31.33h88.25a.33.33,0,0,0,.32-.33h0V24.93a.34.34,0,0,0-.32-.33Z"/><path class="cls-23" d="M360.54,194.87l-7.66,2.53L350.77,187l-16.92-83.45C330.33,86.2,340.44,80.34,350.46,77l20,98.49C372.11,183.81,367.66,192.51,360.54,194.87Z"/><path class="cls-23" d="M243.05,164.19h0a12.75,12.75,0,0,0,1.78,17l16.56,14.13a10.89,10.89,0,0,0,15.37-1.1c.22-.25.42-.51.62-.78h0a12.73,12.73,0,0,0-1.78-17L259,162.31a10.91,10.91,0,0,0-15.38,1.11C243.44,163.67,243.24,163.93,243.05,164.19Z"/><path class="cls-28" d="M274.05,178.06l-3.86-3.17c-7,2-10.38,7.06-10.69,14.64l3.63,3.11C273.07,201.07,282.39,184.73,274.05,178.06Z"/><path class="cls-23" d="M237.81,126.53h0a12.75,12.75,0,0,0,1.85,17.09l14.1,12a10.9,10.9,0,0,0,15.36-1.18c.21-.25.41-.5.59-.76h0a12.72,12.72,0,0,0-1.78-17l-14.11-12a10.89,10.89,0,0,0-15.37,1.08C238.22,126,238,126.26,237.81,126.53Z"/><path class="cls-28" d="M266.44,138.94l-3.87-3.17c-7,2-10.37,7.06-10.68,14.64l3.63,3.11C265.48,162,274.78,145.61,266.44,138.94Z"/></svg>