<svg id="Layer_1" data-name="Layer 1" xmlns="http://www.w3.org/2000/svg" viewBox="0 0 557.07 178.79"><defs><style>.cls-1{fill:#fff;}</style></defs><title>logo</title><g id="Group_6" data-name="Group 6"><g id="Group_4" data-name="Group 4"><g id="Group_3" data-name="Group 3"><g id="Group_2" data-name="Group 2"><path id="Path_20" data-name="Path 20" class="cls-1" d="M212.57,108.3H200.5V65.51h12.07v4a15.36,15.36,0,0,1,11.9-4.88c8.55,0,13.61,5.23,13.61,16.18v27.48H226V81.09a5.49,5.49,0,0,0-4.65-6.22,5,5,0,0,0-1.34,0c-4.44,0-7.45,3.68-7.45,13.27Z"/><path id="Path_21" data-name="Path 21" class="cls-1" d="M285.32,105a39.42,39.42,0,0,1-16.94,4.19c-14.56,0-23.54-8.47-23.54-22.25,0-13.35,7.19-22.25,21.31-22.25,13.35,0,19.94,8.55,19.94,20.37v6.33H257.34C258.53,96.15,262,99,268.63,99a30.13,30.13,0,0,0,12.83-3.51ZM257.59,81.52h16.35c-.34-4.61-3.51-6.66-7.79-6.66a8.35,8.35,0,0,0-8.56,6.65Z"/><path id="Path_22" data-name="Path 22" class="cls-1" d="M291.74,86.91c0-13.36,7.11-22.26,21.32-22.26s21.22,8.9,21.22,22.26-7,22.25-21.22,22.25S291.74,100.26,291.74,86.91Zm12.07,0c0,7.36,3,12.07,9.25,12.07s9.15-4.71,9.15-12.07-2.91-12.07-9.15-12.07-9.25,4.71-9.25,12.07Z"/><path id="Path_23" data-name="Path 23" class="cls-1" d="M347.12,65.51l8.82,25.42,9-25.42h12.92L361.07,108.3H350.89L334.11,65.51Z"/><path id="Path_24" data-name="Path 24" class="cls-1" d="M383.5,75.69h-5V65.51h11.38c4.28,0,5.65.69,5.65,4.71V108.3H383.5Zm.25-27.3h11.64v11.3H383.75Z"/><path id="Path_25" data-name="Path 25" class="cls-1" d="M431.16,78.09a25.62,25.62,0,0,0-11.55-3.25c-2.83,0-4.71.85-4.71,2.65,0,5.39,21.83,2.83,21.83,17.46,0,10.1-7.71,14.21-17.81,14.21a27.82,27.82,0,0,1-18-5.65l5.56-9.24A22.69,22.69,0,0,0,419,99c2.65,0,5.65-.35,5.65-3.17,0-6.42-21.83-2.4-21.83-18.32,0-9.24,8.22-12.83,17.21-12.83a33.7,33.7,0,0,1,15.57,3.68Z"/><path id="Path_26" data-name="Path 26" class="cls-1" d="M444.78,75.69h-5V65.51H451.2c4.28,0,5.65.69,5.65,4.71V108.3H444.78Zm.25-27.3h11.64v11.3H445Z"/><path id="Path_27" data-name="Path 27" class="cls-1" d="M463.61,86.91c0-13.36,7.11-22.26,21.32-22.26s21.22,8.9,21.22,22.26-7,22.25-21.22,22.25S463.61,100.26,463.61,86.91Zm12.07,0c0,7.36,3,12.07,9.25,12.07s9.15-4.71,9.15-12.07-2.9-12.07-9.15-12.07S475.68,79.55,475.68,86.91Z"/><path id="Path_28" data-name="Path 28" class="cls-1" d="M525.07,108.3H513V65.51h12.07v4A15.36,15.36,0,0,1,537,64.65c8.55,0,13.61,5.23,13.61,16.18v27.48H538.51V81.09a5.49,5.49,0,0,0-4.65-6.22,5,5,0,0,0-1.34,0c-4.44,0-7.45,3.68-7.45,13.27Z"/></g></g></g><g id="Group_5" data-name="Group 5"><path id="Path_29" data-name="Path 29" class="cls-1" d="M144,89.86c0-4,0-8,0-12,0-1.16.22-1.62,1.54-1.61q12,.11,24,0c1.19,0,1.48.37,1.48,1.51q-.06,12.07,0,24.14c0,1.13-.27,1.53-1.46,1.52q-12-.07-24,0c-1.34,0-1.57-.47-1.55-1.62C144,97.84,144,93.85,144,89.86Z"/><path id="Path_30" data-name="Path 30" class="cls-1" d="M18.5,103.39c-3.88,0-7.76,0-11.64,0-1.27,0-1.75-.28-1.74-1.64.06-7.94,0-15.88,0-23.81,0-1.12.15-1.69,1.53-1.68q11.9.1,23.81,0c1.2,0,1.6.28,1.59,1.55q-.09,12,0,24c0,1.2-.28,1.61-1.56,1.58C26.5,103.33,22.5,103.38,18.5,103.39Z"/><path id="Path_31" data-name="Path 31" class="cls-1" d="M87.86,51.1c-4,0-7.88-.05-11.81,0-1.27,0-1.59-.39-1.59-1.61q.08-11.9,0-23.79c0-1.23.34-1.58,1.57-1.57q12,.07,24,0c1.22,0,1.6.31,1.59,1.56q-.07,11.89,0,23.79c0,1.2-.28,1.64-1.57,1.62C96,51.05,91.91,51.1,87.86,51.1Z"/><path id="Path_32" data-name="Path 32" class="cls-1" d="M87.93,155.52c-4,0-8,0-12,0-1.1,0-1.52-.22-1.51-1.44q.09-12,0-24c0-1.27.4-1.58,1.61-1.57q12,.08,24,0c1.23,0,1.6.35,1.59,1.59,0,7.93-.06,15.86,0,23.79,0,1.41-.49,1.62-1.71,1.59C95.91,155.48,91.92,155.52,87.93,155.52Z"/><path id="Path_33" data-name="Path 33" class="cls-1" d="M35.93,54.91c0-3.47,0-6.94,0-10.41,0-1.27.4-1.58,1.62-1.57q10.41.09,20.81,0c1.15,0,1.52.29,1.51,1.48q-.08,10.5,0,21c0,1.17-.35,1.5-1.5,1.49-6.93,0-13.87-.08-20.81,0-1.41,0-1.65-.49-1.62-1.75C36,61.73,35.93,58.32,35.93,54.91Z"/><path id="Path_34" data-name="Path 34" class="cls-1" d="M48,112.86c3.41,0,6.83,0,10.23,0,1.15,0,1.67.14,1.65,1.5-.08,7-.06,14,0,21,0,1-.25,1.42-1.36,1.41q-10.59-.08-21.17,0c-1.16,0-1.37-.39-1.36-1.42q.06-10.5,0-21c0-1.13.21-1.54,1.45-1.51C40.92,112.92,44.45,112.86,48,112.86Z"/><path id="Path_35" data-name="Path 35" class="cls-1" d="M128.08,136.72c-3.41,0-6.82,0-10.23,0-1.15,0-1.65-.14-1.64-1.5.08-7,.06-14,0-21,0-1.06.25-1.43,1.36-1.42q10.59.06,21.17,0c1.13,0,1.37.37,1.36,1.42,0,7-.06,14,0,21,0,1.35-.49,1.53-1.64,1.51-3.47-.06-6.94,0-10.41,0Z"/><path id="Path_36" data-name="Path 36" class="cls-1" d="M128.15,43.09c3.53,0,7,0,10.58,0,1,0,1.31.25,1.3,1.27q-.06,10.57,0,21.17c0,1-.37,1.23-1.32,1.23-7,0-14,0-21,0-1.23,0-1.45-.45-1.45-1.53,0-6.88.06-13.76,0-20.64,0-1.32.5-1.53,1.66-1.51C121.33,43.13,124.74,43.09,128.15,43.09Z"/><path id="Path_37" data-name="Path 37" class="cls-1" d="M125,30c-2.35,0-4.69,0-7,0-1,0-1.29-.32-1.28-1.32q.08-6.94,0-13.9c0-1.06.36-1.27,1.32-1.26q7,.06,14.08,0c1,0,1.31.3,1.31,1.3q-.07,7,0,13.91c0,1.05-.39,1.29-1.35,1.27C129.68,30,127.34,30,125,30Z"/><path id="Path_38" data-name="Path 38" class="cls-1" d="M50.94,166.1c-2.29,0-4.58,0-6.87,0-1,0-1.43-.22-1.42-1.36.07-4.57.06-9.15,0-13.73,0-1,.26-1.44,1.38-1.43,4.69.06,9.38,0,14.08,0,1,0,1.31.28,1.3,1.3q-.07,7,0,13.91c0,1-.23,1.33-1.26,1.3C55.75,166.05,53.34,166.1,50.94,166.1Z"/><path id="Path_39" data-name="Path 39" class="cls-1" d="M146.66,35.68c0-1.88.05-3.76,0-5.64,0-.95.19-1.37,1.25-1.35,3.94,0,7.87,0,11.8,0,.92,0,1.23.34,1.22,1.25q0,5.89,0,11.79c0,1-.37,1.21-1.25,1.2-3.94,0-7.87,0-11.8,0-1,0-1.16-.49-1.15-1.3,0-2,0-4,0-6Z"/><path id="Path_40" data-name="Path 40" class="cls-1" d="M22.31,136.78c1.88,0,3.76,0,5.63,0,1,0,1.44.18,1.46,1.33.08,3.86-.38,7.71,0,11.56C29.48,150.78,29,151,28,151q-5.72-.08-11.44,0c-1.07,0-1.43-.33-1.41-1.42q.08-5.72,0-11.43c0-1.09.32-1.45,1.4-1.41C18.44,136.83,20.38,136.78,22.31,136.78Z"/><path id="Path_41" data-name="Path 41" class="cls-1" d="M106.12,9.43c0,1.46,0,2.93,0,4.4,0,.89-.21,1.23-1.18,1.23-3-.06-6-.05-9,0-1,0-1.38-.21-1.36-1.27.06-3,0-6,0-9,0-1,.36-1.3,1.34-1.28,3,.05,6,.05,9,0,.91,0,1.25.23,1.21,1.18-.06,1.58,0,3.16,0,4.75Z"/><path id="Path_42" data-name="Path 42" class="cls-1" d="M69.93,170.31c0-1.53,0-3.05,0-4.58,0-.85.25-1.09,1.1-1.08q4.58.07,9.15,0c1,0,1.29.38,1.27,1.35q-.08,4.4,0,8.8c0,1-.24,1.45-1.36,1.42-3-.07-6-.06-9,0-.92,0-1.24-.22-1.2-1.16C70,173.48,69.93,171.89,69.93,170.31Z"/><path id="Path_43" data-name="Path 43" class="cls-1" d="M62.54,35.21c-3.78,0-3.78,0-3.78-3.74s0-3.75,3.8-3.75,3.67,0,3.67,3.67v.17C66.23,35.2,66.23,35.2,62.54,35.21Z"/><path id="Path_44" data-name="Path 44" class="cls-1" d="M113.63,144.49c3.66,0,3.66,0,3.66,3.65,0,3.85,0,3.85-3.82,3.85-3.65,0-3.65,0-3.65-3.66C109.81,144.49,109.81,144.49,113.63,144.49Z"/><path id="Path_45" data-name="Path 45" class="cls-1" d="M150.48,118.57c0-3.71,0-3.71,3.73-3.71s3.7,0,3.7,3.73,0,3.81-3.64,3.81C150.48,122.39,150.48,122.39,150.48,118.57Z"/><path id="Path_46" data-name="Path 46" class="cls-1" d="M22,57.32c3.59,0,3.59,0,3.59,3.54,0,4,0,4-4,4-3.4,0-3.4,0-3.41-3.34v-.35C18.14,57.31,18.14,57.31,22,57.32Z"/><path id="Path_47" data-name="Path 47" class="cls-1" d="M88.59,62.46a27.09,27.09,0,1,0,27,27.21v-.16A27.15,27.15,0,0,0,88.59,62.46ZM96.93,85a7.27,7.27,0,0,1-7.3-7.25c0-.06,0-.13,0-.2A7.37,7.37,0,0,1,96.84,70h.23a7.5,7.5,0,1,1-.14,15Z"/></g></g></svg>