<svg id="Layer_1" data-name="Layer 1" xmlns="http://www.w3.org/2000/svg" viewBox="0 0 196.54 193.51"><defs><style>.cls-1{fill:#610c80;}</style></defs><title>only-logo</title><g id="Group_6" data-name="Group 6"><g id="Group_5" data-name="Group 5"><path id="Path_29" data-name="Path 29" class="cls-1" d="M152.89,96.64c0-4,0-8,0-12,0-1.17.23-1.62,1.54-1.61q12,.11,24,0c1.18,0,1.48.37,1.48,1.51q-.08,12.07,0,24.14c0,1.12-.27,1.52-1.47,1.52-8,0-16-.07-24,0-1.34,0-1.56-.47-1.55-1.62C152.92,104.62,152.89,100.62,152.89,96.64Z"/><path id="Path_30" data-name="Path 30" class="cls-1" d="M27.44,110.16c-3.88,0-7.76,0-11.64,0-1.28,0-1.75-.28-1.74-1.65q.07-11.9,0-23.81c0-1.11.15-1.68,1.52-1.67,7.94.07,15.88,0,23.81,0,1.2,0,1.6.28,1.6,1.55q-.09,12,0,24c0,1.21-.29,1.62-1.57,1.59C35.44,110.11,31.44,110.16,27.44,110.16Z"/><path id="Path_31" data-name="Path 31" class="cls-1" d="M96.79,57.88c-4,0-7.87-.05-11.81,0-1.27,0-1.59-.4-1.58-1.61q.06-11.89,0-23.79c0-1.23.33-1.58,1.57-1.58q12,.09,24,0c1.21,0,1.59.32,1.58,1.57q-.08,11.89,0,23.79c0,1.2-.28,1.64-1.57,1.62C104.9,57.83,100.84,57.88,96.79,57.88Z"/><path id="Path_32" data-name="Path 32" class="cls-1" d="M96.86,162.3c-4,0-8,0-12,0-1.1,0-1.52-.22-1.51-1.44q.09-12,0-24c0-1.27.4-1.58,1.61-1.57q12,.08,24,0c1.24,0,1.6.35,1.59,1.59,0,7.93-.06,15.86,0,23.78,0,1.42-.49,1.62-1.72,1.6C104.85,162.25,100.86,162.3,96.86,162.3Z"/><path id="Path_33" data-name="Path 33" class="cls-1" d="M44.87,61.68c0-3.46.05-6.93,0-10.4,0-1.27.39-1.58,1.62-1.57q10.41.07,20.81,0c1.15,0,1.51.29,1.5,1.48q-.08,10.49,0,21c0,1.18-.34,1.51-1.49,1.5-6.94-.06-13.88-.08-20.81,0-1.41,0-1.65-.5-1.62-1.75C44.91,68.51,44.87,65.1,44.87,61.68Z"/><path id="Path_34" data-name="Path 34" class="cls-1" d="M56.91,119.64c3.41,0,6.82,0,10.23,0,1.15,0,1.66.14,1.64,1.5-.08,7-.06,14,0,21,0,1.06-.25,1.43-1.37,1.42q-10.58-.08-21.17,0c-1.15,0-1.36-.39-1.36-1.42q.06-10.5,0-21c0-1.13.22-1.55,1.46-1.51C49.85,119.7,53.38,119.64,56.91,119.64Z"/><path id="Path_35" data-name="Path 35" class="cls-1" d="M137,143.5c-3.41,0-6.83,0-10.23,0-1.16,0-1.66-.14-1.64-1.51.07-7,0-14,0-21,0-1,.24-1.43,1.36-1.42q10.58.08,21.16,0c1.14,0,1.37.38,1.37,1.42,0,7-.06,14,0,21,0,1.35-.49,1.53-1.64,1.51-3.46-.06-6.93,0-10.4,0Z"/><path id="Path_36" data-name="Path 36" class="cls-1" d="M137.08,49.87c3.53,0,7.06,0,10.58,0,1,0,1.32.25,1.31,1.27q-.06,10.58,0,21.16c0,1.06-.38,1.24-1.32,1.24-7,0-14,0-21,0-1.24,0-1.46-.45-1.45-1.54q.06-10.32,0-20.63c0-1.33.49-1.54,1.65-1.51C130.26,49.91,133.67,49.87,137.08,49.87Z"/><path id="Path_37" data-name="Path 37" class="cls-1" d="M133.93,36.82c-2.35,0-4.69,0-7,0-1,0-1.3-.32-1.29-1.32q.08-6.95,0-13.9c0-1.06.37-1.27,1.32-1.26q7,.06,14.08,0c1,0,1.32.29,1.31,1.3q-.08,7,0,13.91c0,1-.39,1.29-1.34,1.27C138.62,36.78,136.27,36.82,133.93,36.82Z"/><path id="Path_38" data-name="Path 38" class="cls-1" d="M59.87,172.88c-2.29,0-4.58,0-6.86,0-1,0-1.43-.21-1.42-1.35.06-4.57,0-9.15,0-13.73,0-1,.26-1.44,1.38-1.43,4.68.05,9.37,0,14.08,0,1,0,1.31.28,1.29,1.3q-.07,6.94,0,13.9c0,1-.22,1.34-1.25,1.3C64.69,172.83,62.28,172.88,59.87,172.88Z"/><path id="Path_39" data-name="Path 39" class="cls-1" d="M155.6,42.46c0-1.88,0-3.76,0-5.64,0-1,.2-1.37,1.26-1.35,3.93.05,7.86,0,11.79,0,.92,0,1.24.33,1.23,1.24q-.06,5.91,0,11.8c0,1-.37,1.2-1.26,1.2-3.93,0-7.87,0-11.8,0-1,0-1.15-.5-1.15-1.3,0-2,0-4,0-6Z"/><path id="Path_40" data-name="Path 40" class="cls-1" d="M31.25,143.56c1.88,0,3.75,0,5.63,0,1,0,1.43.18,1.46,1.33.08,3.86-.39,7.71,0,11.56.11,1.13-.37,1.39-1.42,1.37q-5.72-.08-11.43,0c-1.07,0-1.43-.32-1.42-1.41q.09-5.71,0-11.43c0-1.09.33-1.45,1.4-1.42C27.38,143.61,29.31,143.56,31.25,143.56Z"/><path id="Path_41" data-name="Path 41" class="cls-1" d="M115.06,16.2c0,1.47,0,2.94,0,4.41,0,.88-.2,1.23-1.17,1.23-3-.06-6-.05-9,0-1,0-1.38-.22-1.36-1.28.06-3,0-6,0-9,0-1,.36-1.29,1.33-1.28q4.5.07,9,0c.91,0,1.26.24,1.22,1.18-.07,1.58,0,3.17,0,4.76Z"/><path id="Path_42" data-name="Path 42" class="cls-1" d="M78.86,177.08c0-1.52,0-3.05,0-4.57,0-.85.24-1.09,1.1-1.08q4.58.07,9.14,0c1,0,1.29.38,1.28,1.35q-.08,4.4,0,8.79c0,1-.25,1.46-1.37,1.43-3-.07-6-.06-9,0-.92,0-1.23-.22-1.19-1.16C78.91,180.25,78.87,178.67,78.86,177.08Z"/><path id="Path_43" data-name="Path 43" class="cls-1" d="M71.48,42c-3.79,0-3.79,0-3.79-3.74s0-3.75,3.8-3.75,3.68,0,3.68,3.67v.18C75.17,42,75.17,42,71.48,42Z"/><path id="Path_44" data-name="Path 44" class="cls-1" d="M122.56,151.27c3.67,0,3.67,0,3.67,3.64,0,3.85,0,3.85-3.83,3.85-3.65,0-3.65,0-3.65-3.65C118.75,151.27,118.75,151.27,122.56,151.27Z"/><path id="Path_45" data-name="Path 45" class="cls-1" d="M159.41,125.34c0-3.7,0-3.7,3.73-3.7s3.7,0,3.7,3.72,0,3.82-3.64,3.81S159.41,129.17,159.41,125.34Z"/><path id="Path_46" data-name="Path 46" class="cls-1" d="M30.93,64.09c3.58,0,3.58,0,3.58,3.55,0,4,0,4-4,4-3.41,0-3.41,0-3.41-3.34V67.9C27.08,64.08,27.08,64.08,30.93,64.09Z"/><path id="Path_47" data-name="Path 47" class="cls-1" d="M97.53,69.24a27.09,27.09,0,1,0,27,27.2v-.16A27.14,27.14,0,0,0,97.53,69.24Zm8.34,22.49a7.27,7.27,0,0,1-7.3-7.25v-.2a7.37,7.37,0,0,1,7.2-7.54H106a7.5,7.5,0,0,1-.14,15Z"/></g></g></svg>